# xmcd
#
# Track frame offsets:
# 150
# 13095
# 33087
# 44902
# 60287
# 76760
# 89492
# 102337
# 117150
# 148595
# 173090
# 186872
# 198217
# 217792
# 237085
# 255022
#
# Disc length: 3588 seconds
#
#
# Revision: 5
# Processed by: cddbd v1.4PL0 Copyright (c) Steve Scherf et al.
# Submitted via: FreeRIP 2.40 
#
DISCID=c50e0210
DTITLE=Nina Simone - Ultimate Nina Simone Selected by Dianne Reeves
DYEAR=1997
DGENRE=Jazz
TTITLE0=Images (Of A Wayward Soul)
TTITLE1=Four Women
TTITLE2=See-Line Woman
TTITLE3=Be My Husband
TTITLE4=Come Ye
TTITLE5=Take Me To The Water
TTITLE6=I'm Going Back Home
TTITLE7=Blue On Purpose
TTITLE8=Wild Is The Wind
TTITLE9=Don't Smoke In Bed
TTITLE10=The Other Woman
TTITLE11=I Loves You, Porgy
TTITLE12=Don't Explain (Be Obtuse)
TTITLE13=Lilac Wine
TTITLE14=If I Should Lose You
TTITLE15=Tell Me More And More And Then Some
EXTD=YEAR: 1997
EXTT0=
EXTT1=
EXTT2=
EXTT3=
EXTT4=
EXTT5=
EXTT6=
EXTT7=
EXTT8=
EXTT9=
EXTT10=
EXTT11=
EXTT12=
EXTT13=
EXTT14=
EXTT15=
PLAYORDER=
